<?xml version="1.0" standalone="no"?>
<!DOCTYPE svg PUBLIC "-//W3C//DTD SVG 20010904//EN"
 "http://www.w3.org/TR/2001/REC-SVG-20010904/DTD/svg10.dtd">
<svg version="1.0" xmlns="http://www.w3.org/2000/svg"
 width="1024.000000pt" height="1024.000000pt" viewBox="0 0 1024.000000 1024.000000"
 preserveAspectRatio="xMidYMid meet">

<g transform="translate(0.000000,1024.000000) scale(0.100000,-0.100000)"
fill="#000000" stroke="none">
<path d="M4645 6894 c-253 -96 -617 -234 -808 -306 -191 -72 -344 -134 -340
-138 4 -4 40 -19 78 -33 75 -27 181 -68 805 -307 556 -213 736 -280 752 -280
8 0 122 41 253 91 615 233 949 359 957 359 4 0 8 -123 8 -274 0 -238 -2 -275
-15 -280 -21 -8 -46 -70 -39 -93 14 -42 30 -66 56 -79 108 -56 212 73 128 158
l-30 30 0 291 0 292 128 49 c70 27 143 56 162 64 l34 14 -34 15 c-19 8 -285
108 -590 223 -305 115 -656 247 -780 294 -124 47 -234 86 -245 85 -11 0 -227
-79 -480 -175z"/>
<path d="M4170 5767 c0 -353 -2 -346 98 -414 97 -65 257 -118 472 -155 106
-19 165 -22 385 -22 229 -1 275 2 389 23 288 51 480 130 550 224 20 27 21 42
24 339 3 294 2 310 -15 306 -27 -8 -723 -270 -840 -317 l-101 -40 -249 93
c-136 52 -348 132 -471 180 -122 47 -227 86 -232 86 -6 0 -10 -116 -10 -303z"/>
<path d="M4200 5003 c-1069 -16 -2669 -67 -2638 -83 13 -7 164 -10 1693 -30
920 -13 2794 -13 3760 0 1422 18 1720 23 1695 31 -27 8 -929 42 -1575 59 -988
26 -2174 35 -2935 23z"/>
<path d="M6005 4606 c-81 -18 -123 -37 -193 -85 -109 -74 -195 -194 -227 -316
-19 -76 -19 -224 0 -300 43 -165 183 -315 352 -377 86 -32 263 -32 352 0 122
44 219 121 291 233 138 214 103 521 -81 699 -127 123 -331 183 -494 146z m280
-151 c70 -34 142 -98 184 -163 47 -74 64 -149 59 -261 -5 -123 -40 -206 -122
-286 -223 -217 -584 -125 -686 176 -19 53 -21 80 -18 160 4 81 10 107 36 162
50 108 135 188 243 227 83 31 223 24 304 -15z"/>
<path d="M8173 4573 c-8 -21 -39 -99 -67 -173 -29 -74 -108 -275 -176 -447
l-125 -312 -52 -1 -53 0 0 -60 0 -60 180 0 181 0 -3 58 -3 57 -57 3 c-32 2
-58 4 -58 6 0 1 17 47 39 102 l38 99 242 3 c132 1 241 1 241 -1 0 -1 18 -47
40 -101 22 -54 40 -99 40 -101 0 -2 -26 -5 -57 -7 l-58 -3 -3 -57 -3 -58 186
0 185 0 0 60 0 60 -54 0 -54 0 -31 78 c-18 42 -105 259 -194 482 l-162 405
-73 3 -73 3 -16 -38z m185 -353 c46 -118 86 -223 89 -232 5 -17 -8 -18 -186
-18 -105 0 -191 1 -191 3 0 3 157 406 182 467 8 19 12 21 16 10 3 -8 43 -112
90 -230z"/>
<path d="M1420 4546 l0 -53 38 -7 c20 -3 49 -6 65 -6 l27 0 0 -420 0 -420 -65
0 -65 0 0 -60 0 -60 410 0 410 0 0 135 0 135 -65 0 -65 0 0 -75 0 -75 -215 0
-215 0 0 185 0 185 198 2 197 3 0 55 0 55 -197 5 -198 5 -2 172 -3 171 130 7
c71 4 168 5 215 3 l85 -3 3 -72 3 -73 62 0 62 0 -3 130 -3 130 -405 0 -404 0
0 -54z"/>
<path d="M2361 4545 l-2 -55 48 0 c26 0 58 -3 71 -6 l22 -6 0 -419 0 -419 -64
0 -64 0 -4 -60 -3 -60 285 0 c217 0 298 4 340 15 184 49 320 183 376 370 26
86 24 229 -4 320 -40 132 -135 247 -259 313 -107 57 -147 62 -458 62 l-282 0
-2 -55z m661 -103 c88 -43 152 -106 191 -190 31 -64 32 -72 32 -192 0 -120 -1
-128 -32 -192 -40 -85 -106 -151 -191 -191 -65 -31 -71 -32 -229 -35 l-163 -4
0 422 0 422 163 -4 c161 -3 163 -3 229 -36z"/>
<path d="M3445 4543 l0 -57 65 -1 65 0 1 -318 c1 -175 5 -338 9 -362 3 -24 19
-71 36 -104 53 -106 151 -172 284 -193 188 -29 371 67 437 230 22 55 23 69 26
400 l3 342 64 0 65 0 0 60 0 60 -195 0 -195 0 0 -59 0 -59 65 4 65 5 0 -319
c0 -353 -5 -387 -62 -456 -46 -56 -116 -86 -204 -86 -139 0 -230 70 -261 200
-18 77 -19 649 0 651 6 1 23 1 37 1 14 -1 37 1 53 4 25 5 27 9 27 60 l0 54
-192 0 -193 0 0 -57z"/>
<path d="M4540 4550 c0 -27 1 -53 3 -56 1 -3 25 -7 54 -8 28 0 53 -3 55 -6 2
-3 55 -147 117 -320 200 -554 211 -584 225 -616 14 -31 16 -32 77 -30 l63 1
88 240 c49 132 122 337 164 455 109 309 93 280 158 280 l56 0 0 55 0 55 -190
0 -190 0 0 -59 c0 -41 4 -59 13 -58 6 0 35 -1 64 -1 l52 -2 -73 -212 c-41
-117 -86 -247 -101 -288 -15 -41 -43 -123 -63 -182 -20 -60 -39 -108 -42 -108
-3 0 -16 33 -29 73 -18 54 -220 629 -248 703 -3 7 18 14 56 18 l61 7 0 54 0
55 -185 0 -185 0 0 -50z"/>
<path d="M6709 4568 c0 -18 -2 -43 -5 -55 -4 -22 -1 -23 55 -23 35 0 63 -5 67
-12 4 -6 8 -197 8 -425 l1 -413 -62 0 -63 0 0 -60 0 -60 195 0 196 0 -3 58 -3
57 -68 3 -68 3 2 159 2 160 111 0 111 0 61 -93 c33 -50 96 -149 139 -219 l79
-128 104 0 104 0 -4 58 -3 57 -67 3 c-38 2 -68 6 -68 10 0 4 -47 79 -104 167
l-104 160 58 27 c114 55 173 151 173 283 1 130 -52 218 -167 278 l-61 32 -307
3 -308 3 -1 -33z m598 -103 c153 -61 161 -278 15 -358 -48 -26 -55 -27 -206
-27 l-156 0 0 200 0 199 78 4 c126 7 224 0 269 -18z"/>
<path d="M3830 3270 c-918 -10 -2336 -42 -2348 -54 -5 -6 1025 -38 1878 -58
671 -16 2682 -16 3470 0 877 18 1936 50 1928 58 -6 6 -1192 34 -1818 44 -1001
14 -2287 18 -3110 10z"/>
</g>
</svg>
